<?xml version="1.0" standalone="no"?><!DOCTYPE svg PUBLIC "-//W3C//DTD SVG 1.1//EN" "http://www.w3.org/Graphics/SVG/1.1/DTD/svg11.dtd"><svg t="1748065817239" class="icon" viewBox="0 0 1024 1024" version="1.1" xmlns="http://www.w3.org/2000/svg" p-id="4592" xmlns:xlink="http://www.w3.org/1999/xlink" width="200" height="200"><path d="M511.99019654 882.78764798a291.47444317 291.47444317 0 0 1-208.11485668-86.69523235A294.63120601 294.63120601 0 0 1 217.76937021 587.04105272c0-36.11336815 12.41660061-78.28772021 37.94429028-128.93271986 19.52983976-38.73348116 46.88845225-82.33889969 81.3076903-129.59564057 60.19946876-82.65457546 125.80752473-154.13421115 144.4745163-174.07442986a41.91128915 41.91128915 0 0 1 30.51537461-13.22683665 41.91128915 41.91128915 0 0 1 30.51537462 13.22683665c18.57228841 19.94021943 84.22243466 91.41985441 144.432426 174.10599759 34.41923805 47.25674091 61.77785055 90.86215943 81.30769031 129.59564056 25.53821223 50.64499965 37.95481284 92.81935243 37.95481284 128.93271987a294.63120601 294.63120601 0 0 1-86.10596965 209.05136289 291.47444317 291.47444317 0 0 1-208.12537928 86.66366464z m0-661.98370642c-27.79003659 30.74687051-75.76231037 85.88499631-120.52520842 147.31560265-68.5754132 94.155715-106.35134301 171.88574095-106.35134227 218.86889564 0 125.94431819 101.77403627 228.40231961 226.87655069 228.40232033s226.8765507-102.45800214 226.87655071-228.40232033c0-46.99367726-37.76540723-124.72370321-106.35134226-218.86889564-44.78394321-61.4411289-92.73517182-116.56873212-120.52520845-147.31560265z" p-id="4593" data-spm-anchor-id="a313x.search_index.0.i17.591d3a81JRLxcA" class="" fill="#1296db"></path><path d="M511.64295234 648.93465087m-67.11277975 0a67.11277972 67.11277972 0 1 0 134.22555947 0 67.11277972 67.11277972 0 1 0-134.22555947 0Z" p-id="4594" data-spm-anchor-id="a313x.search_index.0.i18.591d3a81JRLxcA" class="selected" fill="#06d9eb"></path></svg>